{
    "asset": {
        "version": "2.0",
        "generator": "Open Asset Import Library (assimp v5.4.0)"
    },
    "extensionsUsed": [
        "KHR_materials_specular",
        "KHR_materials_volume",
        "FB_ngon_encoding"
    ],
    "accessors": [
        {
            "bufferView": 0,
            "byteOffset": 0,
            "componentType": 5126,
            "count": 1232,
            "type": "VEC3",
            "max": [
                53.10009765625,
                89.21343994140625,
                144.65728759765625
            ],
            "min": [
                -86.14249420166016,
                -29.798738479614258,
                -123.42657470703125
            ]
        },
        {
            "bufferView": 1,
            "byteOffset": 0,
            "componentType": 5126,
            "count": 1232,
            "type": "VEC3",
            "max": [
                1.0,
                1.0,
                1.0
            ],
            "min": [
                -1.0,
                -1.0,
                -1.0
            ]
        },
        {
            "bufferView": 2,
            "byteOffset": 0,
            "componentType": 5126,
            "count": 1232,
            "type": "VEC2",
            "max": [
                0.9966292381286621,
                0.8975023031234741
            ],
            "min": [
                0.05022156238555908,
                0.04132342338562012
            ]
        },
        {
            "bufferView": 3,
            "byteOffset": 0,
            "componentType": 5125,
            "count": 2748,
            "type": "SCALAR",
            "max": [
                1231
            ],
            "min": [
                0
            ]
        },
        {
            "bufferView": 4,
            "byteOffset": 0,
            "componentType": 5126,
            "count": 228,
            "type": "VEC3",
            "max": [
                8.390449523925781,
                4.074194431304932,
                10.889420509338379
            ],
            "min": [
                -105.53365325927734,
                -2.0141429901123047,
                -107.93994140625
            ]
        },
        {
            "bufferView": 5,
            "byteOffset": 0,
            "componentType": 5126,
            "count": 228,
            "type": "VEC3",
            "max": [
                0.9974842667579651,
                1.0,
                1.0
            ],
            "min": [
                -1.0,
                -1.0,
                -1.0
            ]
        },
        {
            "bufferView": 6,
            "byteOffset": 0,
            "componentType": 5126,
            "count": 228,
            "type": "VEC2",
            "max": [
                0.5650076866149902,
                0.7904473543167114
            ],
            "min": [
                0.07918894290924072,
                0.05402272939682007
            ]
        },
        {
            "bufferView": 7,
            "byteOffset": 0,
            "componentType": 5125,
            "count": 888,
            "type": "SCALAR",
            "max": [
                227
            ],
            "min": [
                0
            ]
        },
        {
            "bufferView": 8,
            "byteOffset": 0,
            "componentType": 5126,
            "count": 48,
            "type": "VEC3",
            "max": [
                3424.55810546875,
                4671.65283203125,
                3997.271484375
            ],
            "min": [
                -3424.55810546875,
                -4671.65283203125,
                0.0
            ]
        },
        {
            "bufferView": 9,
            "byteOffset": 0,
            "componentType": 5126,
            "count": 48,
            "type": "VEC3",
            "max": [
                1.0,
                0.0,
                1.0
            ],
            "min": [
                0.0,
                -1.0,
                0.0
            ]
        },
        {
            "bufferView": 10,
            "byteOffset": 0,
            "componentType": 5126,
            "count": 48,
            "type": "VEC2",
            "max": [
                1.0,
                1.0407687425613403
            ],
            "min": [
                0.0,
                0.0
            ]
        },
        {
            "bufferView": 11,
            "byteOffset": 0,
            "componentType": 5125,
            "count": 126,
            "type": "SCALAR",
            "max": [
                47
            ],
            "min": [
                0
            ]
        }
    ],
    "buffers": [
        {
            "byteLength": 63304,
            "uri": "Chair.bin"
        }
    ],
    "bufferViews": [
        {
            "buffer": 0,
            "byteOffset": 0,
            "byteLength": 14784,
            "target": 34962
        },
        {
            "buffer": 0,
            "byteOffset": 14784,
            "byteLength": 14784,
            "target": 34962
        },
        {
            "buffer": 0,
            "byteOffset": 29568,
            "byteLength": 9856,
            "target": 34962
        },
        {
            "buffer": 0,
            "byteOffset": 39424,
            "byteLength": 10992,
            "target": 34963
        },
        {
            "buffer": 0,
            "byteOffset": 50416,
            "byteLength": 2736,
            "target": 34962
        },
        {
            "buffer": 0,
            "byteOffset": 53152,
            "byteLength": 2736,
            "target": 34962
        },
        {
            "buffer": 0,
            "byteOffset": 55888,
            "byteLength": 1824,
            "target": 34962
        },
        {
            "buffer": 0,
            "byteOffset": 57712,
            "byteLength": 3552,
            "target": 34963
        },
        {
            "buffer": 0,
            "byteOffset": 61264,
            "byteLength": 576,
            "target": 34962
        },
        {
            "buffer": 0,
            "byteOffset": 61840,
            "byteLength": 576,
            "target": 34962
        },
        {
            "buffer": 0,
            "byteOffset": 62416,
            "byteLength": 384,
            "target": 34962
        },
        {
            "buffer": 0,
            "byteOffset": 62800,
            "byteLength": 504,
            "target": 34963
        }
    ],
    "images": [
        {
            "uri": "Textures\\Chair-1.jpg"
        },
        {
            "uri": "Textures\\Chair-2.jpg"
        }
    ],
    "materials": [
        {
            "name": "Material #0",
            "pbrMetallicRoughness": {
                "baseColorTexture": {
                    "index": 0
                },
                "baseColorFactor": [
                    0.5,
                    0.5,
                    0.5,
                    1.0
                ],
                "metallicFactor": 0.0,
                "roughnessFactor": -2.200000047683716
            },
            "extensions": {
                "KHR_materials_specular": {
                    "specularFactor": 1.0
                }
            }
        },
        {
            "name": "Material #2",
            "pbrMetallicRoughness": {
                "baseColorTexture": {
                    "index": 1
                },
                "baseColorFactor": [
                    0.5,
                    0.5,
                    0.5,
                    1.0
                ],
                "metallicFactor": 0.0,
                "roughnessFactor": 0.6589460968971252
            },
            "extensions": {
                "KHR_materials_specular": {
                    "specularFactor": 1.0
                }
            }
        },
        {
            "name": "Material #1",
            "pbrMetallicRoughness": {
                "metallicFactor": 0.0,
                "roughnessFactor": -2.200000047683716
            },
            "extensions": {
                "KHR_materials_specular": {
                    "specularFactor": 1.0
                }
            }
        }
    ],
    "meshes": [
        {
            "name": "Legs",
            "primitives": [
                {
                    "mode": 4,
                    "material": 0,
                    "indices": 3,
                    "attributes": {
                        "POSITION": 0,
                        "NORMAL": 1,
                        "TEXCOORD_0": 2
                    }
                }
            ]
        },
        {
            "name": "Cover",
            "primitives": [
                {
                    "mode": 4,
                    "material": 1,
                    "indices": 7,
                    "attributes": {
                        "POSITION": 4,
                        "NORMAL": 5,
                        "TEXCOORD_0": 6
                    }
                }
            ]
        },
        {
            "name": "Studio",
            "primitives": [
                {
                    "mode": 4,
                    "material": 2,
                    "indices": 11,
                    "attributes": {
                        "POSITION": 8,
                        "NORMAL": 9,
                        "TEXCOORD_0": 10
                    }
                }
            ]
        }
    ],
    "nodes": [
        {
            "name": "RootNode",
            "children": [
                1,
                4,
                9,
                12
            ]
        },
        {
            "name": "Legs_$AssimpFbx$_Translation",
            "matrix": [
                1.0,
                0.0,
                0.0,
                0.0,
                0.0,
                1.0,
                0.0,
                0.0,
                0.0,
                0.0,
                1.0,
                0.0,
                -745.1661987304688,
                123.45765686035156,
                -26.882038116455078,
                1.0
            ],
            "children": [
                2
            ]
        },
        {
            "name": "Legs_$AssimpFbx$_PreRotation",
            "matrix": [
                1.0,
                0.0,
                0.0,
                0.0,
                0.0,
                -4.371138828673793e-8,
                -1.0,
                0.0,
                0.0,
                1.0,
                -4.371138828673793e-8,
                0.0,
                0.0,
                0.0,
                0.0,
                1.0
            ],
            "children": [
                3
            ]
        },
        {
            "name": "Legs",
            "mesh": 0,
            "extras": {
                "UserProperties": "",
                "IsNull": false,
                "DefaultAttributeIndex": 0,
                "InheritType": 1,
                "MaxHandle": 12,
                "RotationActive": true,
                "ScalingMax": null
            }
        },
        {
            "name": "Cover_$AssimpFbx$_Translation",
            "matrix": [
                1.0,
                0.0,
                0.0,
                0.0,
                0.0,
                1.0,
                0.0,
                0.0,
                0.0,
                0.0,
                1.0,
                0.0,
                -745.1661987304688,
                123.45765686035156,
                -26.882038116455078,
                1.0
            ],
            "children": [
                5
            ]
        },
        {
            "name": "Cover_$AssimpFbx$_PreRotation",
            "matrix": [
                1.0,
                0.0,
                0.0,
                0.0,
                0.0,
                -4.371138828673793e-8,
                -1.0,
                0.0,
                0.0,
                1.0,
                -4.371138828673793e-8,
                0.0,
                0.0,
                0.0,
                0.0,
                1.0
            ],
            "children": [
                6
            ]
        },
        {
            "name": "Cover_$AssimpFbx$_Rotation",
            "matrix": [
                1.0,
                0.0,
                0.0,
                0.0,
                0.0,
                -1.6292068494294654e-7,
                1.0,
                0.0,
                0.0,
                -1.0,
                -1.6292068494294654e-7,
                0.0,
                0.0,
                0.0,
                0.0,
                1.0
            ],
            "children": [
                7
            ]
        },
        {
            "name": "Cover_$AssimpFbx$_GeometricTranslation",
            "matrix": [
                1.0,
                0.0,
                0.0,
                0.0,
                0.0,
                1.0,
                0.0,
                0.0,
                0.0,
                0.0,
                1.0,
                0.0,
                48.57160186767578,
                -1.0300263166427612,
                18.817920684814453,
                1.0
            ],
            "children": [
                8
            ]
        },
        {
            "name": "Cover",
            "mesh": 1,
            "extras": {
                "UserProperties": "",
                "IsNull": false,
                "DefaultAttributeIndex": 0,
                "InheritType": 1,
                "MaxHandle": 39,
                "RotationActive": true,
                "ScalingMax": null
            }
        },
        {
            "name": "ArnoldLight001_$AssimpFbx$_Translation",
            "matrix": [
                1.0,
                0.0,
                0.0,
                0.0,
                0.0,
                1.0,
                0.0,
                0.0,
                0.0,
                0.0,
                1.0,
                0.0,
                -754.2552490234375,
                687.9549560546875,
                -78.517822265625,
                1.0
            ],
            "children": [
                10
            ]
        },
        {
            "name": "ArnoldLight001_$AssimpFbx$_PreRotation",
            "matrix": [
                1.0,
                0.0,
                0.0,
                0.0,
                0.0,
                -4.371138828673793e-8,
                -1.0,
                0.0,
                0.0,
                1.0,
                -4.371138828673793e-8,
                0.0,
                0.0,
                0.0,
                0.0,
                1.0
            ],
            "children": [
                11
            ]
        },
        {
            "name": "ArnoldLight001",
            "extras": {
                "UserProperties": "",
                "IsNull": false,
                "InheritType": 1,
                "MaxHandle": 41,
                "RotationActive": true,
                "ScalingMax": null
            }
        },
        {
            "name": "Studio_$AssimpFbx$_Translation",
            "matrix": [
                1.0,
                0.0,
                0.0,
                0.0,
                0.0,
                1.0,
                0.0,
                0.0,
                0.0,
                0.0,
                1.0,
                0.0,
                -1057.0758056640625,
                0.0,
                -1997.61767578125,
                1.0
            ],
            "children": [
                13
            ]
        },
        {
            "name": "Studio_$AssimpFbx$_PreRotation",
            "matrix": [
                1.0,
                0.0,
                0.0,
                0.0,
                0.0,
                -4.371138828673793e-8,
                -1.0,
                0.0,
                0.0,
                1.0,
                -4.371138828673793e-8,
                0.0,
                0.0,
                0.0,
                0.0,
                1.0
            ],
            "children": [
                14
            ]
        },
        {
            "name": "Studio",
            "mesh": 2,
            "extras": {
                "UserProperties": "",
                "IsNull": false,
                "DefaultAttributeIndex": 0,
                "InheritType": 1,
                "MaxHandle": 42,
                "RotationActive": true,
                "ScalingMax": null
            }
        }
    ],
    "samplers": [
        {},
        {}
    ],
    "scenes": [
        {
            "nodes": [
                0
            ]
        }
    ],
    "textures": [
        {
            "source": 0,
            "sampler": 0
        },
        {
            "source": 1,
            "sampler": 1
        }
    ],
    "scene": 0
}